<svg xmlns="http://www.w3.org/2000/svg" xmlns:xlink="http://www.w3.org/1999/xlink" contentStyleType="text/css" data-diagram-type="CLASS" height="339px" preserveAspectRatio="none" style="width:406px;height:339px;background:#FFFFFF;" version="1.1" viewBox="0 0 406 339" width="406px" zoomAndPan="magnify"><defs/><g><!--cluster Entity--><g class="cluster" data-entity="Entity" data-source-line="8" data-uid="ent0004" id="cluster_Entity"><path d="M8.5,6 L92.3311,6 A3.75,3.75 0 0 1 94.8311,8.5 L101.8311,28.2969 L396.5,28.2969 A2.5,2.5 0 0 1 399,30.7969 L399,329.77 A2.5,2.5 0 0 1 396.5,332.27 L8.5,332.27 A2.5,2.5 0 0 1 6,329.77 L6,8.5 A2.5,2.5 0 0 1 8.5,6" fill="none" style="stroke:#000000;stroke-width:1.5;"/><line style="stroke:#000000;stroke-width:1.5;" x1="6" x2="101.8311" y1="28.2969" y2="28.2969"/><text fill="#000000" font-family="sans-serif" font-size="14" font-weight="bold" lengthAdjust="spacing" textLength="82.8311" x="10" y="20.9951">App\Entity</text></g><!--class Booking--><g class="entity" data-entity="Booking" data-source-line="8" data-uid="ent0002" id="entity_Booking"><rect fill="#F1F1F1" height="115.7813" rx="2.5" ry="2.5" style="stroke:#181818;stroke-width:0.5;" width="251.2031" x="76.4" y="41"/><text fill="#000000" font-family="sans-serif" font-size="14" lengthAdjust="spacing" textLength="56.4922" x="173.7555" y="58.9951">Booking</text><line style="stroke:#181818;stroke-width:0.5;" x1="77.4" x2="326.6031" y1="67.2969" y2="67.2969"/><rect fill="none" height="6" style="stroke:#C82930;stroke-width:1;" width="6" x="84.4" y="77.9453"/><text fill="#000000" font-family="sans-serif" font-size="14" lengthAdjust="spacing" textLength="98.2324" x="96.4" y="84.292">id : ?int = null</text><rect fill="none" height="6" style="stroke:#C82930;stroke-width:1;" width="6" x="84.4" y="94.2422"/><text fill="#000000" font-family="sans-serif" font-size="14" lengthAdjust="spacing" textLength="75.4551" x="96.4" y="100.5889">uid : string</text><rect fill="none" height="6" style="stroke:#C82930;stroke-width:1;" width="6" x="84.4" y="110.5391"/><text fill="#000000" font-family="sans-serif" font-size="14" lengthAdjust="spacing" textLength="189.0752" x="96.4" y="116.8857">date : DateTimeImmutable</text><rect fill="none" height="6" style="stroke:#C82930;stroke-width:1;" width="6" x="84.4" y="126.8359"/><text fill="#000000" font-family="sans-serif" font-size="14" lengthAdjust="spacing" textLength="225.2031" x="96.4" y="133.1826">customer : App\Entity\Customer</text><rect fill="none" height="6" style="stroke:#C82930;stroke-width:1;" width="6" x="84.4" y="143.1328"/><text fill="#000000" font-family="sans-serif" font-size="14" lengthAdjust="spacing" textLength="142.3789" x="96.4" y="149.4795">trip : App\Entity\Trip</text></g><!--class Trip--><g class="entity" data-entity="Trip" data-source-line="15" data-uid="ent0005" id="entity_Trip"><rect fill="#F1F1F1" height="99.4844" rx="2.5" ry="2.5" style="stroke:#181818;stroke-width:0.5;" width="185.5234" x="22.24" y="216.79"/><text fill="#000000" font-family="sans-serif" font-size="14" lengthAdjust="spacing" textLength="27.084" x="101.4597" y="234.7851">Trip</text><line style="stroke:#181818;stroke-width:0.5;" x1="23.24" x2="206.7634" y1="243.0869" y2="243.0869"/><rect fill="none" height="6" style="stroke:#C82930;stroke-width:1;" width="6" x="30.24" y="253.7353"/><text fill="#000000" font-family="sans-serif" font-size="14" lengthAdjust="spacing" textLength="98.2324" x="42.24" y="260.082">id : ?int = null</text><rect fill="none" height="6" style="stroke:#C82930;stroke-width:1;" width="6" x="30.24" y="270.0322"/><text fill="#000000" font-family="sans-serif" font-size="14" lengthAdjust="spacing" textLength="147.0957" x="42.24" y="276.3789">name : ?string = null</text><rect fill="none" height="6" style="stroke:#C82930;stroke-width:1;" width="6" x="30.24" y="286.3291"/><text fill="#000000" font-family="sans-serif" font-size="14" lengthAdjust="spacing" textLength="136.3359" x="42.24" y="292.6757">slug : ?string = null</text><rect fill="none" height="6" style="stroke:#C82930;stroke-width:1;" width="6" x="30.24" y="302.6259"/><text fill="#000000" font-family="sans-serif" font-size="14" lengthAdjust="spacing" textLength="159.5234" x="42.24" y="308.9726">tagLine : ?string = null</text></g><!--class Customer--><g class="entity" data-entity="Customer" data-source-line="21" data-uid="ent0006" id="entity_Customer"><rect fill="#F1F1F1" height="99.4844" rx="2.5" ry="2.5" style="stroke:#181818;stroke-width:0.5;" width="140" x="243" y="216.79"/><text fill="#000000" font-family="sans-serif" font-size="14" lengthAdjust="spacing" textLength="68.0039" x="278.998" y="234.7851">Customer</text><line style="stroke:#181818;stroke-width:0.5;" x1="244" x2="382" y1="243.0869" y2="243.0869"/><rect fill="none" height="6" style="stroke:#C82930;stroke-width:1;" width="6" x="251" y="253.7353"/><text fill="#000000" font-family="sans-serif" font-size="14" lengthAdjust="spacing" textLength="98.2324" x="263" y="260.082">id : ?int = null</text><rect fill="none" height="6" style="stroke:#C82930;stroke-width:1;" width="6" x="251" y="270.0322"/><text fill="#000000" font-family="sans-serif" font-size="14" lengthAdjust="spacing" textLength="75.4551" x="263" y="276.3789">uid : string</text><rect fill="none" height="6" style="stroke:#C82930;stroke-width:1;" width="6" x="251" y="286.3291"/><text fill="#000000" font-family="sans-serif" font-size="14" lengthAdjust="spacing" textLength="93.5088" x="263" y="292.6757">name : string</text><rect fill="none" height="6" style="stroke:#C82930;stroke-width:1;" width="6" x="251" y="302.6259"/><text fill="#000000" font-family="sans-serif" font-size="14" lengthAdjust="spacing" textLength="92.415" x="263" y="308.9726">email : string</text></g><!--link Booking to Customer--><g class="link" data-entity-1="Booking" data-entity-2="Customer" data-source-line="27" data-uid="lnk7" id="link_Booking_Customer"><path codeLine="27" d="M285.3,157.05 C285.3,176.35 285.3,191.64 285.3,210.29" fill="none" id="Booking-to-Customer" style="stroke:#181818;stroke-width:1;"/><polygon fill="#181818" points="285.3,216.29,289.3,207.29,285.3,211.29,281.3,207.29,285.3,216.29" style="stroke:#181818;stroke-width:1;"/><text fill="#000000" font-family="sans-serif" font-size="13" lengthAdjust="spacing" textLength="6.5" x="288.6134" y="176.7164">*</text><text fill="#000000" font-family="sans-serif" font-size="13" lengthAdjust="spacing" textLength="8.271" x="273.0585" y="205.6067">1</text></g><!--link Booking to Trip--><g class="link" data-entity-1="Booking" data-entity-2="Trip" data-source-line="28" data-uid="lnk8" id="link_Booking_Trip"><path codeLine="28" d="M142.08,157.05 C142.08,176.35 142.08,191.64 142.08,210.29" fill="none" id="Booking-to-Trip" style="stroke:#181818;stroke-width:1;"/><polygon fill="#181818" points="142.08,216.29,146.08,207.29,142.08,211.29,138.08,207.29,142.08,216.29" style="stroke:#181818;stroke-width:1;"/><text fill="#000000" font-family="sans-serif" font-size="13" lengthAdjust="spacing" textLength="6.5" x="128.8336" y="176.7164">*</text><text fill="#000000" font-family="sans-serif" font-size="13" lengthAdjust="spacing" textLength="8.271" x="137.1994" y="205.6067">1</text></g><!--SRC=[ZP1FImCn4CNl-HJJFGeB5Zm9MhHwA2XuA7WfbEdkk1kQIK8oUrYatzrPMssbA_IKpE_DdyVB990fOa892LPW9Z5XmmXTfeKNIaorHQ4thBROK8OFT9bCtbe_334uwqdwI12IjE54UBL-xZ3dTrjB2zERQzFQcg2ogNAq_nD7wO69DvIocKXBJB3smTFQLCCiFCIuUlPYfLyzXg2x6_Wq9TWQRc5clS0T-CuvHTqtovAqHyjQFMlzfC_ICYsOEy6D7YwXwh84fgJooVhvWMg3xeX_nQKIipltDF3_37damS5iR-d8i-kQCIxOl6YMvzB8tH-p5uPniF9R4wDrHx0p8p4NLmMKvJqKqs8qfij7Xf2-0000]--></g></svg>